HIERARCHY
ROOT root
{
	OFFSET	0	13.1	24.9
	CHANNELS 6  Xposition Yposition Zposition Xrotation Yrotation Zrotation
	JOINT spine_1
	{
		OFFSET	0	9.99999	0
		CHANNELS 3  Xrotation Yrotation Zrotation
		JOINT spine_2
		{
			OFFSET	0	112	-10
			CHANNELS 3  Xrotation Yrotation Zrotation
			JOINT spine_3
			{
				OFFSET	0	206.5	19.3
				CHANNELS 3  Xrotation Yrotation Zrotation
				JOINT spine_4
				{
					OFFSET	0	110.4	14.6
					CHANNELS 3  Xrotation Yrotation Zrotation
					JOINT neck_1
					{
						OFFSET	0	71.8	-50.3
						CHANNELS 3  Xrotation Yrotation Zrotation
						JOINT neck_2
						{
							OFFSET	0	86.2	-25.8
							CHANNELS 3  Xrotation Yrotation Zrotation
							JOINT head_ee
							{
								OFFSET	0	179.8	-8.7
								CHANNELS 3  Xrotation Yrotation Zrotation
								End Site
								{
									OFFSET	1	0	0
								}
							}
						}
					}
					JOINT left_clavicle
					{
						OFFSET	-43.2	22.4	-70.8
						CHANNELS 3  Xrotation Yrotation Zrotation
						JOINT left_shoulder
						{
							OFFSET	-93.9	-5.79999	48.7
							CHANNELS 3  Xrotation Yrotation Zrotation
							JOINT left_elbow
							{
								OFFSET	-291.4	-30.8	15.2
								CHANNELS 3  Xrotation Yrotation Zrotation
								JOINT left_lowarm_twist
								{
									OFFSET	-110.7	-3.89999	13.6
									CHANNELS 3  Xrotation Yrotation Zrotation
									JOINT left_hand
									{
										OFFSET	-110.7	-3.89999	13.6
										CHANNELS 3  Xrotation Yrotation Zrotation
										JOINT left_ee
										{
											OFFSET	-80.8	-5.10001	12.1
											CHANNELS 3  Xrotation Yrotation Zrotation
											End Site
											{
												OFFSET	1	0	0
											}
										}
									}
								}
							}
						}
					}
					JOINT right_clavicle
					{
						OFFSET	43.2	22.4	-70.8
						CHANNELS 3  Xrotation Yrotation Zrotation
						JOINT right_shoulder
						{
							OFFSET	93.9	-5.79999	48.7
							CHANNELS 3  Xrotation Yrotation Zrotation
							JOINT right_elbow
							{
								OFFSET	291.4	-30.8	15.2
								CHANNELS 3  Xrotation Yrotation Zrotation
								JOINT right_lowarm_twist
								{
									OFFSET	110.7	-3.89999	13.6
									CHANNELS 3  Xrotation Yrotation Zrotation
									JOINT right_hand
									{
										OFFSET	110.7	-3.89999	13.6
										CHANNELS 3  Xrotation Yrotation Zrotation
										JOINT right_ee
										{
											OFFSET	80.8	-5.10001	12.1
											CHANNELS 3  Xrotation Yrotation Zrotation
											End Site
											{
												OFFSET	1	0	0
											}
										}
									}
								}
							}
						}
					}
				}
			}
		}
	}
	JOINT left_hip
	{
		OFFSET	-82.8	-127.5	0.300001
		CHANNELS 3  Xrotation Yrotation Zrotation
		JOINT left_knee
		{
			OFFSET	-28.2	-396.7	2.2
			CHANNELS 3  Xrotation Yrotation Zrotation
			JOINT left_ankle
			{
				OFFSET	-11.7	-411.3	35.4
				CHANNELS 3  Xrotation Yrotation Zrotation
				JOINT left_toes
				{
					OFFSET	0	-60	-88.6
					CHANNELS 3  Xrotation Yrotation Zrotation
					JOINT left_foot_ee
					{
						OFFSET	-22.5	-16.5	-42.2
						CHANNELS 3  Xrotation Yrotation Zrotation
						End Site
						{
							OFFSET	1	0	0
						}
					}
				}
			}
		}
	}
	JOINT right_hip
	{
		OFFSET	82.8	-127.5	0.300001
		CHANNELS 3  Xrotation Yrotation Zrotation
		JOINT right_knee
		{
			OFFSET	28.2	-396.7	2.2
			CHANNELS 3  Xrotation Yrotation Zrotation
			JOINT right_ankle
			{
				OFFSET	11.7	-411.3	35.4
				CHANNELS 3  Xrotation Yrotation Zrotation
				JOINT right_toes
				{
					OFFSET	0	-60	-88.6
					CHANNELS 3  Xrotation Yrotation Zrotation
					JOINT right_foot_ee
					{
						OFFSET	22.5	-16.5	-42.2
						CHANNELS 3  Xrotation Yrotation Zrotation
						End Site
						{
							OFFSET	1	0	0
						}
					}
				}
			}
		}
	}
}
MOTION
Frames: 8
Frame Time: 0.02
1640.29 707.567 -1468.68 90.0 86.5455 -90.0 -1.4987 0.0721394 -0.510553 -1.49856 0.104481 -0.504928 -1.49941 0.220548 -0.466077 -1.49968 0.144173 -0.495058 -14.6729 5.38326 -2.41549 -14.7715 11.7326 -0.520738 -0.0 0.0 -0.0 2.75393 19.5514 6.36587 3.69185 -32.624 68.8839 1.19151 -30.5496 0.325407 -19.6376 -1.08899 2.25026 3.90995 12.7692 31.6697 -0.0 0.0 -0.0 10.4163 9.17245 -20.7525 -13.877 11.2694 -62.53 1.01176 26.6193 -0.239357 29.6507 -0.0770203 3.7449 1.47465 -3.03888 -11.1063 0.0 0.0 0.0 6.06101 10.1219 -2.32309 -39.7312 -0.449753 5.96062 34.2433 16.3807 -4.40064 13.9933 -0.0 -0.0 -0.0 0.0 -0.0 -5.39793 16.8772 -7.1792 2.5725 0.114451 0.37811 40.9707 -11.9317 4.97851 -20.1877 0.0 0.0 0.0 0.0 0.0 
1629.88 707.752 -1469.67 87.6654 85.9687 -86.4548 -1.84653 0.0920691 -0.606739 -1.84634 0.13049 -0.599651 -1.84759 0.271504 -0.550361 -1.84796 0.181179 -0.586331 -15.6105 6.18353 -1.35605 -15.7563 12.6319 0.854824 -0.0 0.0 -0.0 2.68446 19.6388 6.26572 5.54886 -33.59 70.0508 1.3281 -33.3393 0.397697 -18.8737 -1.03252 2.17038 3.94342 12.4223 31.8219 -0.0 0.0 -0.0 10.4036 9.66193 -20.7218 -14.7392 10.1596 -62.729 0.914812 24.3783 -0.197612 29.3928 -0.0847224 3.71286 1.30743 -3.74231 -10.2554 0.0 0.0 0.0 8.36185 10.9285 -2.90819 -39.2643 -0.420629 5.89503 33.2902 15.924 -4.29628 12.5296 -0.0 -0.0 -0.0 0.0 -0.0 -6.37979 19.1228 -6.5531 4.35732 0.203801 0.637318 40.3822 -9.57266 4.90678 -20.1367 0.0 0.0 0.0 0.0 0.0 
1620.02 704.431 -1466.91 38.1715 85.2293 -36.8292 -1.62128 0.24467 -0.828735 -1.62094 0.296907 -0.811488 -1.62505 0.481408 -0.717579 -1.62559 0.362041 -0.784598 -13.5391 7.30202 -1.15007 -13.6877 14.6214 1.17082 -0.0 0.0 -0.0 2.5183 19.268 6.00287 5.85906 -34.6233 70.5068 1.43358 -35.3786 0.457241 -17.6515 -0.944416 2.04103 3.99441 11.5889 31.9615 -0.0 0.0 -0.0 10.1101 10.9486 -20.0605 -15.2495 9.97372 -62.0363 0.857871 23.0235 -0.174722 29.1296 -0.0924352 3.68013 1.27148 -4.80279 -10.4273 0.0 0.0 0.0 10.6569 10.8242 -3.2701 -40.6854 -0.510949 6.09396 32.4981 15.5379 -4.20868 11.9886 -0.0 -0.0 -0.0 0.0 -0.0 -7.02074 20.4915 -5.99623 6.833 0.341048 0.992088 40.5979 -7.25079 4.91329 -20.1616 0.0 0.0 0.0 0.0 0.0 
1608.78 699.685 -1461.29 33.1717 83.8847 -31.8908 -1.62036 0.0781764 -0.833446 -1.61999 0.13105 -0.826783 -1.62164 0.323892 -0.77191 -1.62242 0.197922 -0.813371 -13.2595 8.19442 -0.22229 -13.429 15.7389 2.29653 -0.0 0.0 -0.0 2.50432 19.1862 5.97837 6.62839 -35.1192 71.16 1.53758 -37.2929 0.518869 -16.721 -0.879208 1.94133 3.37244 11.1948 27.2091 -0.0 0.0 -0.0 10.2236 11.2864 -20.3041 -17.9779 11.4639 -61.0565 0.828964 22.3251 -0.163579 29.0047 -0.096044 3.66458 1.43591 -4.69046 -11.4867 0.0 0.0 0.0 15.1789 10.2436 -5.01822 -41.4952 -0.564624 6.20631 24.5197 15.0249 -3.30956 10.9363 -0.0 -0.0 -0.0 0.0 -0.0 -9.41973 23.686 -4.99987 6.28706 0.309462 0.914358 40.4657 -4.23511 4.8982 -18.1701 0.0 0.0 0.0 0.0 0.0 
1597.26 695.27 -1460.22 21.5522 82.1252 -19.9815 -1.58795 0.123017 -0.774512 -1.58763 0.17205 -0.765116 -1.58976 0.348661 -0.702455 -1.59037 0.233349 -0.748701 -11.4028 10.8371 -0.12461 -11.6103 20.5958 2.88514 -0.0 0.0 -0.0 2.5194 19.8435 6.02904 7.53481 -35.7396 70.9687 1.66027 -39.4323 0.595026 -14.7807 -0.748511 1.73014 2.51559 7.05315 19.7325 -0.0 0.0 -0.0 11.0943 11.377 -22.2349 -21.2792 12.2411 -58.3941 0.741855 20.178 -0.132 29.6088 -0.0782801 3.7397 1.96584 -4.20903 -14.8936 0.0 0.0 0.0 16.7501 7.86849 -5.30319 -32.4193 -0.0561796 4.90915 18.3844 15.5036 -2.55476 6.32104 -0.0 -0.0 -0.0 0.0 -0.0 -9.9212 19.9143 -5.67577 6.47363 0.320173 0.940954 40.5344 -3.73976 4.90472 -15.6627 0.0 0.0 0.0 0.0 0.0 
1584.66 692.391 -1457.9 15.2764 79.9222 -13.7024 -1.58724 0.0911917 -0.736595 -1.58695 0.137877 -0.7293 -1.58854 0.306948 -0.675777 -1.58912 0.196373 -0.715771 -10.0597 11.657 -0.40272 -10.2267 22.2308 2.58414 -0.0 0.0 -0.0 2.53876 19.5049 6.04352 7.95688 -36.8009 70.6437 1.72745 -40.551 0.638204 -14.3554 -0.720823 1.68326 1.93679 6.05092 15.3875 -0.0 0.0 -0.0 10.8885 12.7137 -21.7502 -22.7559 13.5432 -58.0803 0.720072 19.6315 -0.124583 29.2982 -0.0875131 3.7011 2.06428 -6.20055 -16.3123 0.0 0.0 0.0 17.9233 6.48985 -5.79395 -29.0653 0.0787307 4.41219 19.366 14.9021 -2.67601 3.31042 -0.0 -0.0 -0.0 0.0 -0.0 -10.1731 19.9908 -5.27077 5.63748 0.272851 0.821493 40.4476 -3.62726 4.89753 -16.4153 0.0 0.0 0.0 0.0 0.0 
1571.41 695.687 -1455.06 11.7367 78.3762 -10.7146 -1.59812 0.187185 -0.594809 -1.59795 0.224655 -0.581693 -1.60019 0.356336 -0.511725 -1.60046 0.271048 -0.561578 -11.2371 13.2195 0.958304 -11.5237 24.3948 4.58541 -0.0 0.0 -0.0 2.40859 20.3284 5.88677 8.34589 -37.5559 70.6922 1.80024 -41.7222 0.686092 -14.6355 -0.739019 1.71416 1.6011 3.07761 11.9766 -0.0 0.0 -0.0 11.0365 12.6081 -22.0837 -24.743 13.9165 -57.1506 0.699711 19.1172 -0.117829 29.3223 -0.0868027 3.7041 2.29248 -7.16712 -18.2295 0.0 0.0 0.0 17.8755 3.0892 -5.57418 -20.4436 0.290102 3.10719 19.1107 14.7815 -2.64289 -0.241156 0.0 0.0 -0.0 0.0 -0.0 -10.6815 18.8098 -4.15342 4.50305 0.211454 0.658359 40.0677 -2.41195 4.86841 -16.4624 0.0 0.0 0.0 0.0 0.0 
1558.96 691.838 -1453.19 7.52123 75.9107 -6.59132 -1.61788 0.189239 -0.515148 -1.61776 0.221636 -0.502063 -1.61968 0.334644 -0.434976 -1.61985 0.261749 -0.482367 -9.88658 14.7126 1.51446 -10.1221 26.698 5.22336 -0.0 0.0 -0.0 2.18653 20.9533 5.5926 8.85541 -38.1677 70.3299 1.89775 -43.2268 0.751943 -13.2941 -0.65327 1.56543 1.22447 -0.238498 8.11003 -0.0 0.0 -0.0 11.1315 13.5702 -22.273 -25.8677 14.2365 -56.2738 0.680968 18.6409 -0.111764 28.7856 -0.10229 3.63729 2.32323 -8.92199 -19.0628 0.0 0.0 0.0 19.6768 1.46731 -6.19859 -17.8849 0.314817 2.71541 20.9744 10.9721 -2.85748 -3.08692 0.0 0.0 -0.0 0.0 -0.0 -11.1233 18.642 -3.23337 4.46489 0.209445 0.652851 39.3871 -1.89331 4.81157 -15.3536 0.0 0.0 0.0 0.0 0.0 
